<svg width="392" height="192" viewBox="0 0 392 192" fill="none" xmlns="http://www.w3.org/2000/svg">
<path d="M129.378 66.0114C119.583 66.0114 111.257 70.4 105.38 77.7144L114.686 89.9049C117.134 84.0533 123.011 80.1525 129.378 80.1525C135.744 80.1525 145.539 87.4668 145.539 96.2438C145.539 105.021 138.193 112.335 129.378 112.335C120.562 112.335 119.583 109.897 116.644 105.996L95.5856 77.7144C90.1983 70.4 81.3833 66.0114 71.5884 66.0114C61.7936 66.0114 60.3244 67.4744 55.4269 70.8876V41.6305H41.7142V126.476H55.4269V121.6C60.3244 124.526 65.7115 126.476 71.5884 126.476C84.3216 126.476 95.5856 118.674 99.9932 107.459C99.9932 107.459 104.891 114.286 106.36 116.236C111.747 123.063 120.073 126.964 129.378 126.964C146.029 126.964 159.742 113.311 159.742 96.7314C159.742 80.1525 146.519 66.0114 129.378 66.0114ZM72.0782 111.848C63.2628 111.848 55.9167 104.533 55.9167 95.7562C55.9167 86.979 63.2628 79.6648 72.0782 79.6648C80.8935 79.6648 88.2394 86.979 88.2394 95.7562C88.2394 104.533 80.8935 111.848 72.0782 111.848ZM208.226 68.9372C204.798 66.9868 200.88 66.0114 196.472 66.0114C192.064 66.0114 188.636 66.9868 185.208 68.9372C182.759 70.4 180.8 72.3505 179.331 74.7885V67.962H165.618V126.476H180.311V92.3429C180.311 89.9049 180.8 87.4668 181.78 85.5161C182.759 83.5657 184.228 82.1029 186.187 81.1277C188.147 80.1525 190.105 79.6648 192.554 79.6648C195.003 79.6648 196.962 79.6648 198.921 81.1277C200.88 82.1029 202.349 83.5657 203.328 85.5161C204.308 87.4668 204.798 89.9049 204.798 92.3429V126.476H219.49V88.9297C219.49 84.5409 218.51 80.6401 216.551 77.2268C214.103 73.3257 211.654 70.8876 208.226 68.9372ZM335.558 67.962L320.376 107.947L305.684 67.962H290.502L313.519 126.476L312.049 129.402C311.072 131.84 309.602 133.791 308.133 135.253C306.664 136.716 304.215 137.691 300.787 137.691C297.358 137.691 298.338 137.691 296.869 137.204C295.399 137.204 294.42 137.204 293.44 137.204V149.394C294.91 149.394 295.889 150.37 297.358 150.857C298.828 150.857 300.297 150.857 302.256 150.857C306.174 150.857 309.112 150.857 312.049 148.907C314.989 147.444 317.436 145.493 319.886 142.568C321.846 139.642 323.804 136.716 325.274 132.815L351.23 68.4496H335.558V67.962ZM270.423 70.4C265.525 67.4744 260.138 65.5238 254.261 65.5238C237.61 65.5238 223.897 79.1772 223.897 95.7562C223.897 112.335 237.61 125.989 254.261 125.989C270.912 125.989 265.525 124.526 270.423 121.113V125.989H284.625V41.1429H270.912V70.4H270.423ZM254.261 111.848C245.446 111.848 238.1 104.533 238.1 95.7562C238.1 86.979 245.446 79.6648 254.261 79.6648C263.077 79.6648 270.423 86.979 270.423 95.7562C270.423 104.533 263.566 111.848 254.261 111.848Z" fill="#1E40AF"/>
</svg>
