<svg xmlns="http://www.w3.org/2000/svg" width="115" height="42" viewBox="0 0 115 42" fill="none"><path d="M33.0301 9.87435C29.412 9.87435 26.3366 11.5025 24.1658 14.2161L27.603 18.7387C28.5075 16.5678 30.6783 15.1206 33.0301 15.1206C35.3819 15.1206 39 17.8342 39 21.0904C39 24.3467 36.2864 27.0603 33.0301 27.0603C29.7738 27.0603 29.412 26.1558 28.3266 24.7085L20.5477 14.2161C18.5577 11.5025 15.3015 9.87435 11.6834 9.87435C8.06528 9.87435 7.52257 10.4171 5.71352 11.6834V0.829127H0.648193V32.3065H5.71352V30.4975C7.52257 31.5829 9.51252 32.3065 11.6834 32.3065C16.3869 32.3065 20.5477 29.412 22.1758 25.2512C22.1758 25.2512 23.9849 27.7839 24.5276 28.5075C26.5175 31.0402 29.5929 32.4874 33.0301 32.4874C39.1809 32.4874 44.2462 27.4221 44.2462 21.2713C44.2462 15.1206 39.3618 9.87435 33.0301 9.87435ZM11.8643 26.8794C8.60799 26.8794 5.89443 24.1658 5.89443 20.9095C5.89443 17.6532 8.60799 14.9397 11.8643 14.9397C15.1206 14.9397 17.8341 17.6532 17.8341 20.9095C17.8341 24.1658 15.1206 26.8794 11.8643 26.8794ZM62.1557 10.9598C60.8894 10.2362 59.4422 9.87435 57.814 9.87435C56.1859 9.87435 54.9196 10.2362 53.6532 10.9598C52.7487 11.5025 52.0251 12.2261 51.4824 13.1306V10.598H46.417V32.3065H51.8442V19.6432C51.8442 18.7387 52.0251 17.8342 52.3869 17.1105C52.7487 16.3869 53.2914 15.8442 54.015 15.4824C54.7387 15.1206 55.4623 14.9397 56.3668 14.9397C57.2713 14.9397 57.9949 14.9397 58.7185 15.4824C59.4422 15.8442 59.9849 16.3869 60.3467 17.1105C60.7085 17.8342 60.8894 18.7387 60.8894 19.6432V32.3065H66.3165V18.3769C66.3165 16.7487 65.9547 15.3015 65.2311 14.0352C64.3266 12.5879 63.4221 11.6834 62.1557 10.9598ZM109.191 10.598L103.583 25.4321L98.1557 10.598H92.5477L101.05 32.3065L100.507 33.3919C100.146 34.2965 99.603 35.0201 99.0603 35.5628C98.5176 36.1055 97.613 36.4673 96.3467 36.4673C95.0804 36.4673 95.4422 36.4673 94.8995 36.2864C94.3567 36.2864 93.9949 36.2864 93.6331 36.2864V40.809C94.1758 40.809 94.5376 41.1708 95.0804 41.3517C95.6231 41.3517 96.1658 41.3517 96.8894 41.3517C98.3366 41.3517 99.4221 41.3517 100.507 40.6281C101.593 40.0854 102.497 39.3618 103.402 38.2764C104.126 37.1909 104.849 36.1055 105.392 34.6583L114.98 10.7789H109.191V10.598ZM85.1306 11.5025C83.3216 10.4171 81.3316 9.69345 79.1608 9.69345C73.01 9.69345 67.9447 14.7588 67.9447 20.9095C67.9447 27.0603 73.01 32.1256 79.1608 32.1256C85.3115 32.1256 83.3216 31.5829 85.1306 30.3166V32.1256H90.3768V0.648224H85.3115V11.5025H85.1306ZM79.1608 26.8794C75.9045 26.8794 73.1909 24.1658 73.1909 20.9095C73.1909 17.6532 75.9045 14.9397 79.1608 14.9397C82.4171 14.9397 85.1306 17.6532 85.1306 20.9095C85.1306 24.1658 82.598 26.8794 79.1608 26.8794Z" fill="#342FEA"></path></svg>
